<svg width="3840" height="1840" viewBox="0 0 3840 1840" fill="none" xmlns="http://www.w3.org/2000/svg">
<g clip-path="url(#clip0)">
<g filter="url(#filter0_f)">
<ellipse cx="1033.61" cy="1090.34" rx="241.335" ry="240.059" transform="rotate(-23.3694 1033.61 1090.34)" fill="url(#paint0_linear)" fill-opacity="0.1"/>
</g>
<rect x="56.5508" y="-294.368" width="312.049" height="2586.83" transform="rotate(-60 56.5508 -294.368)" fill="url(#paint1_linear)" fill-opacity="0.1"/>
<rect x="-36.3164" y="1008.32" width="22.976" height="1493.89" transform="rotate(-101.764 -36.3164 1008.32)" fill="url(#paint2_linear)" fill-opacity="0.2"/>
<rect x="-51.4141" y="962.739" width="40.3894" height="1276.27" transform="rotate(-101.764 -51.4141 962.739)" fill="url(#paint3_linear)" fill-opacity="0.2"/>
<circle cx="2661.21" cy="71.2071" r="3.20713" fill="#B557FF"/>
<ellipse cx="2712.34" cy="71.2071" rx="3.3853" ry="3.20713" fill="#B557FF"/>
<ellipse cx="2661.21" cy="122.343" rx="3.20713" ry="3.3853" fill="#B557FF"/>
<circle cx="2712.34" cy="122.343" r="3.3853" fill="#B557FF"/>
<ellipse cx="2661.21" cy="173.657" rx="3.20713" ry="3.3853" fill="#B557FF"/>
<circle cx="2712.34" cy="173.657" r="3.3853" fill="#B557FF"/>
<circle cx="2661.21" cy="224.793" r="3.20713" fill="#B557FF"/>
<ellipse cx="2712.34" cy="224.793" rx="3.3853" ry="3.20713" fill="#B557FF"/>
<circle cx="2763.48" cy="71.2071" r="3.20713" fill="#B557FF"/>
<ellipse cx="2814.62" cy="71.2071" rx="3.3853" ry="3.20713" fill="#B557FF"/>
<ellipse cx="2763.48" cy="122.343" rx="3.20713" ry="3.3853" fill="#B557FF"/>
<circle cx="2814.62" cy="122.343" r="3.3853" fill="#B557FF"/>
<ellipse cx="2763.48" cy="173.657" rx="3.20713" ry="3.3853" fill="#B557FF"/>
<circle cx="2814.62" cy="173.657" r="3.3853" fill="#B557FF"/>
<circle cx="2763.48" cy="224.793" r="3.20713" fill="#B557FF"/>
<ellipse cx="2814.62" cy="224.793" rx="3.3853" ry="3.20713" fill="#B557FF"/>
<g filter="url(#filter1_f)">
<ellipse cx="2839.15" cy="36.606" rx="391.099" ry="389.031" transform="rotate(-98.2546 2839.15 36.606)" fill="url(#paint4_linear)" fill-opacity="0.2"/>
</g>
<circle cx="952.207" cy="1623.21" r="3.20713" fill="#B557FF"/>
<ellipse cx="1003.34" cy="1623.21" rx="3.3853" ry="3.20713" fill="#B557FF"/>
<ellipse cx="952.207" cy="1674.34" rx="3.20713" ry="3.3853" fill="#B557FF"/>
<circle cx="1003.34" cy="1674.34" r="3.3853" fill="#B557FF"/>
<ellipse cx="952.207" cy="1725.66" rx="3.20713" ry="3.3853" fill="#B557FF"/>
<circle cx="1003.34" cy="1725.66" r="3.3853" fill="#B557FF"/>
<circle cx="952.207" cy="1776.79" r="3.20713" fill="#B557FF"/>
<ellipse cx="1003.34" cy="1776.79" rx="3.3853" ry="3.20713" fill="#B557FF"/>
<circle cx="1054.48" cy="1623.21" r="3.20713" fill="#B557FF"/>
<ellipse cx="1105.62" cy="1623.21" rx="3.3853" ry="3.20713" fill="#B557FF"/>
<ellipse cx="1054.48" cy="1674.34" rx="3.20713" ry="3.3853" fill="#B557FF"/>
<circle cx="1105.62" cy="1674.34" r="3.3853" fill="#B557FF"/>
<ellipse cx="1054.48" cy="1725.66" rx="3.20713" ry="3.3853" fill="#B557FF"/>
<circle cx="1105.62" cy="1725.66" r="3.3853" fill="#B557FF"/>
<circle cx="1054.48" cy="1776.79" r="3.20713" fill="#B557FF"/>
<ellipse cx="1105.62" cy="1776.79" rx="3.3853" ry="3.20713" fill="#B557FF"/>
</g>
<defs>
<filter id="filter0_f" x="416.855" y="474.248" width="1233.52" height="1232.19" filterUnits="userSpaceOnUse" color-interpolation-filters="sRGB">
<feFlood flood-opacity="0" result="BackgroundImageFix"/>
<feBlend mode="normal" in="SourceGraphic" in2="BackgroundImageFix" result="shape"/>
<feGaussianBlur stdDeviation="150" result="effect1_foregroundBlur"/>
</filter>
<filter id="filter1_f" x="1798" y="-1006.29" width="2082.3" height="2085.8" filterUnits="userSpaceOnUse" color-interpolation-filters="sRGB">
<feFlood flood-opacity="0" result="BackgroundImageFix"/>
<feBlend mode="normal" in="SourceGraphic" in2="BackgroundImageFix" result="shape"/>
<feGaussianBlur stdDeviation="300" result="effect1_foregroundBlur"/>
</filter>
<linearGradient id="paint0_linear" x1="1033.61" y1="850.282" x2="1033.61" y2="1330.4" gradientUnits="userSpaceOnUse">
<stop offset="0.296875" stop-color="#871FD8"/>
<stop offset="1" stop-color="#0038FF"/>
</linearGradient>
<linearGradient id="paint1_linear" x1="212.575" y1="-294.368" x2="608.096" y2="2233.28" gradientUnits="userSpaceOnUse">
<stop stop-color="#871FD8"/>
<stop offset="1" stop-color="#0038FF" stop-opacity="0"/>
</linearGradient>
<linearGradient id="paint2_linear" x1="-24.8284" y1="1008.32" x2="707.483" y2="1605" gradientUnits="userSpaceOnUse">
<stop stop-color="#871FD8"/>
<stop offset="1" stop-color="#0038FF" stop-opacity="0"/>
</linearGradient>
<linearGradient id="paint3_linear" x1="-31.2194" y1="962.739" x2="530.853" y2="1905.09" gradientUnits="userSpaceOnUse">
<stop stop-color="#871FD8"/>
<stop offset="1" stop-color="#0038FF" stop-opacity="0"/>
</linearGradient>
<linearGradient id="paint4_linear" x1="2839.15" y1="-352.425" x2="2839.15" y2="425.637" gradientUnits="userSpaceOnUse">
<stop offset="0.296875" stop-color="#871FD8"/>
<stop offset="1" stop-color="#0038FF"/>
</linearGradient>
<clipPath id="clip0">
<rect width="3840" height="1840" fill="white"/>
</clipPath>
</defs>
</svg>
