<svg width="20" height="21" viewBox="0 0 20 21" fill="none" xmlns="http://www.w3.org/2000/svg">
<path d="M15.34 3.89018C15.1027 3.89018 14.8707 3.96055 14.6733 4.09241C14.476 4.22427 14.3222 4.41168 14.2313 4.63096C14.1405 4.85023 14.1168 5.09151 14.1631 5.32428C14.2094 5.55706 14.3236 5.77088 14.4915 5.9387C14.6593 6.10653 14.8731 6.22082 15.1059 6.26712C15.3387 6.31342 15.5799 6.28966 15.7992 6.19883C16.0185 6.10801 16.2059 5.9542 16.3378 5.75686C16.4696 5.55952 16.54 5.32751 16.54 5.09018C16.54 4.77192 16.4136 4.46669 16.1885 4.24165C15.9635 4.0166 15.6583 3.89018 15.34 3.89018ZM19.94 6.31018C19.9206 5.48047 19.7652 4.65958 19.48 3.88018C19.2257 3.21331 18.83 2.60945 18.32 2.11018C17.8248 1.5976 17.2196 1.20435 16.55 0.960176C15.7727 0.666337 14.9508 0.507386 14.12 0.490176C13.06 0.430176 12.72 0.430176 10 0.430176C7.28 0.430176 6.94 0.430176 5.88 0.490176C5.04915 0.507386 4.22734 0.666337 3.45 0.960176C2.78168 1.20682 2.17693 1.59974 1.68 2.11018C1.16743 2.60535 0.774176 3.21062 0.53 3.88018C0.236161 4.65752 0.07721 5.47933 0.0599999 6.31018C-5.58794e-08 7.37018 0 7.71018 0 10.4302C0 13.1502 -5.58794e-08 13.4902 0.0599999 14.5502C0.07721 15.381 0.236161 16.2028 0.53 16.9802C0.774176 17.6497 1.16743 18.255 1.68 18.7502C2.17693 19.2606 2.78168 19.6535 3.45 19.9002C4.22734 20.194 5.04915 20.353 5.88 20.3702C6.94 20.4302 7.28 20.4302 10 20.4302C12.72 20.4302 13.06 20.4302 14.12 20.3702C14.9508 20.353 15.7727 20.194 16.55 19.9002C17.2196 19.656 17.8248 19.2627 18.32 18.7502C18.8322 18.2528 19.2283 17.6484 19.48 16.9802C19.7652 16.2008 19.9206 15.3799 19.94 14.5502C19.94 13.4902 20 13.1502 20 10.4302C20 7.71018 20 7.37018 19.94 6.31018ZM18.14 14.4302C18.1327 15.0649 18.0178 15.6939 17.8 16.2902C17.6403 16.7254 17.3839 17.1186 17.05 17.4402C16.7256 17.7707 16.3332 18.0266 15.9 18.1902C15.3037 18.4079 14.6748 18.5229 14.04 18.5302C13.04 18.5802 12.67 18.5902 10.04 18.5902C7.41 18.5902 7.04 18.5902 6.04 18.5302C5.38089 18.5425 4.72459 18.441 4.1 18.2302C3.68578 18.0583 3.31136 17.803 3 17.4802C2.66809 17.1589 2.41484 16.7654 2.26 16.3302C2.01586 15.7253 1.88044 15.0821 1.86 14.4302C1.86 13.4302 1.8 13.0602 1.8 10.4302C1.8 7.80018 1.8 7.43018 1.86 6.43018C1.86448 5.78123 1.98295 5.13812 2.21 4.53018C2.38605 4.10809 2.65627 3.73183 3 3.43018C3.30381 3.08634 3.67929 2.81327 4.1 2.63018C4.70955 2.41022 5.352 2.29526 6 2.29018C7 2.29018 7.37 2.23018 10 2.23018C12.63 2.23018 13 2.23018 14 2.29018C14.6348 2.29746 15.2637 2.41242 15.86 2.63018C16.3144 2.79883 16.7223 3.07302 17.05 3.43018C17.3777 3.73735 17.6338 4.11291 17.8 4.53018C18.0223 5.13911 18.1373 5.78196 18.14 6.43018C18.19 7.43018 18.2 7.80018 18.2 10.4302C18.2 13.0602 18.19 13.4302 18.14 14.4302ZM10 5.30018C8.98581 5.30215 7.99496 5.6047 7.15265 6.16959C6.31035 6.73449 5.65438 7.53637 5.26763 8.47393C4.88089 9.41149 4.78072 10.4426 4.97979 11.4371C5.17886 12.4316 5.66824 13.3447 6.38608 14.0612C7.10392 14.7776 8.01801 15.2652 9.01286 15.4623C10.0077 15.6595 11.0387 15.5573 11.9755 15.1687C12.9123 14.7801 13.7129 14.1226 14.2761 13.2792C14.8394 12.4358 15.14 11.4444 15.14 10.4302C15.1413 9.75528 15.0092 9.08678 14.7512 8.46313C14.4933 7.83948 14.1146 7.27299 13.6369 6.79623C13.1592 6.31947 12.5919 5.94185 11.9678 5.6851C11.3436 5.42836 10.6749 5.29754 10 5.30018ZM10 13.7602C9.34139 13.7602 8.69757 13.5649 8.14995 13.199C7.60234 12.8331 7.17552 12.313 6.92348 11.7045C6.67144 11.096 6.6055 10.4265 6.73398 9.78053C6.86247 9.13457 7.17963 8.54122 7.64533 8.07551C8.11104 7.6098 8.70439 7.29265 9.35035 7.16416C9.99631 7.03567 10.6659 7.10162 11.2743 7.35366C11.8828 7.6057 12.4029 8.03251 12.7688 8.58013C13.1347 9.12774 13.33 9.77156 13.33 10.4302C13.33 10.8675 13.2439 11.3005 13.0765 11.7045C12.9092 12.1085 12.6639 12.4756 12.3547 12.7848C12.0454 13.0941 11.6784 13.3393 11.2743 13.5067C10.8703 13.674 10.4373 13.7602 10 13.7602Z" fill="#1B1C2F"/>
</svg>
