<svg width="160" height="26" viewBox="0 0 160 26" fill="none" xmlns="http://www.w3.org/2000/svg">
<path fill-rule="evenodd" clip-rule="evenodd" d="M88.3211 8.66647C89.3643 9.76856 90.1591 11.1211 90.6558 12.5739C92.0963 17.0825 90.1094 21.8415 86.1355 24.1459C83.9498 25.4484 79.7772 25.9493 77.4425 24.747C76.5484 24.3964 75.7536 23.9455 75.0085 23.3444C70.7365 19.9379 70.0411 13.676 73.4189 9.3678C74.015 8.56628 74.7601 7.86494 75.6046 7.3139L75.8529 7.11352C77.4922 5.76095 78.436 3.75714 78.585 1.65314C78.6347 1.0019 78.287 0 78.287 0C78.287 0 79.2804 0.200381 80.2243 0.751428C83.2047 2.50476 84.5956 5.10971 84.5956 8.56628C84.6452 10.019 83.8008 11.572 83.4531 12.0729C84.1485 11.7724 85.44 11.0209 86.4832 8.91694C86.5329 8.91694 86.5329 8.86685 86.5329 8.86685C86.8806 8.3158 86.8806 7.61447 86.8806 7.61447C86.8806 7.61447 87.7747 8.06533 88.3211 8.66647ZM77.4922 20.4388C77.4922 22.4426 79.0818 24.0457 81.0687 24.0457C83.0557 24.0457 84.6452 22.4426 84.6452 20.4388C84.6452 18.435 83.0557 16.832 81.0687 16.832C79.0818 16.832 77.4922 18.435 77.4922 20.4388ZM46.8919 7.11334C47.5377 7.76458 47.8854 8.46591 47.8854 9.31753H47.7861V9.91867H51.7103V8.81657C51.7103 7.96496 51.5613 7.16343 51.2136 6.36191C50.9155 5.61048 50.4188 4.90915 49.773 4.30801C49.1273 3.70686 48.3325 3.20591 47.3887 2.85525C46.4449 2.50458 45.3521 2.3042 44.1102 2.3042C43.0174 2.3042 42.0239 2.45449 41.1298 2.75506C40.2356 3.05563 39.4905 3.45639 38.8448 4.00744C38.2487 4.55848 37.7519 5.15963 37.4042 5.91105C37.0565 6.66248 36.8578 7.464 36.8578 8.31562V8.516C36.8578 9.568 37.0565 10.4697 37.4042 11.171C37.7519 11.8724 38.2487 12.4735 38.8944 12.9745C39.5402 13.4253 40.2853 13.8261 41.1794 14.1267C42.0239 14.4272 43.0174 14.6276 44.0605 14.828C44.8553 14.9783 45.5507 15.1286 46.0475 15.3289C46.5939 15.5293 46.9913 15.7798 47.2893 16.0303C47.5874 16.2808 47.8357 16.5813 47.9351 16.8819C48.0841 17.2326 48.1338 17.5331 48.1338 17.8838C48.1338 18.5851 47.8854 19.2364 47.2893 19.7373C46.7429 20.2884 45.8488 20.5388 44.6566 20.5388C43.1167 20.5388 42.0239 20.1381 41.2788 19.3867C40.5337 18.6352 40.186 17.6333 40.186 16.3809V15.6796H36.2617V16.5813C36.2617 17.6834 36.4604 18.6853 36.8081 19.6371C37.1558 20.5889 37.7023 21.3905 38.3977 22.0918C39.0931 22.743 39.9873 23.2941 41.0304 23.6948C42.0736 24.0956 43.2657 24.296 44.6566 24.296C45.8488 24.296 46.8919 24.1457 47.8357 23.8451C48.7795 23.5446 49.5743 23.0937 50.2201 22.5427C50.8659 21.9415 51.3626 21.2903 51.7103 20.4888C52.058 19.6872 52.2567 18.8356 52.2567 17.8337V17.483C52.2567 15.6796 51.6606 14.2769 50.5181 13.3251C49.3756 12.3733 47.6867 11.7221 45.5011 11.3213C44.7791 11.2 44.1867 11.046 43.6716 10.9121C43.5487 10.8801 43.4302 10.8493 43.3154 10.8204C42.7193 10.6701 42.2723 10.4697 41.9245 10.2192C41.5768 9.96876 41.3285 9.71829 41.1794 9.41772C41.0304 9.11714 40.9807 8.76648 40.9807 8.41581C40.9807 7.71448 41.2291 7.16343 41.8252 6.76267C42.3716 6.36191 43.1664 6.16153 44.1599 6.16153C45.352 6.16153 46.2462 6.5122 46.8919 7.11334ZM20.0195 2.85498H33.1831V6.66221H23.9935V11.4714H32.8851V15.2786H23.9935V20.1378H33.5805V23.9451H20.0195V2.85498ZM0 2.85513H6.90468L8.09686 18.6852V21.741H8.84197V18.6852L10.0341 2.85513H16.9388V23.9452H13.3623V9.86846L13.71 5.05932H13.0146L11.4747 23.9452H5.56349L3.92425 5.05932H3.22881L3.57653 9.86846V23.9452H0V2.85513ZM54.2452 2.85513H68.2036V6.66236H63.1865V20.138H68.2036V23.9452H54.2452V20.138H59.2623V6.66236H54.2452V2.85513ZM98.6508 2.85498H94.7266V23.9451H108.139V20.1378H98.6508V2.85498ZM111.07 2.85498H125.029V6.66221H120.012V20.1378H125.029V23.9451H111.07V20.1378H116.087V6.66221H111.07V2.85498ZM142.464 2.85498H129.101V23.9451H133.025V15.2786H142.265V11.4714H133.025V6.66221H142.464V2.85498ZM146.488 2.85498H159.652V6.66221H150.412V11.4714H159.304V15.2786H150.412V20.1378H159.999V23.9451H146.438V2.85498H146.488Z" fill="#1B1C2F"/>
</svg>
